<?xml version="1.0" standalone="no"?>
<!DOCTYPE svg PUBLIC "-//W3C//DTD SVG 1.1//EN" "http://www.w3.org/Graphics/SVG/1.1/DTD/svg11.dtd" >
<!--
2013-9-30: Created.
-->
<svg>
<metadata>
Created by iconfont
</metadata>
<defs>

<font id="iconfont" horiz-adv-x="1024" >
  <font-face
    font-family="iconfont"
    font-weight="500"
    font-stretch="normal"
    units-per-em="1024"
    ascent="896"
    descent="-128"
  />
    <missing-glyph />
    
    <glyph glyph-name="btn-description-modi" unicode="&#58881;" d="M338.432 325.6832a7.2192 7.2192 0 0 1-1.4336-2.56l-46.3872-169.8816a29.184 29.184 0 0 1 7.3728-28.1088 29.1328 29.1328 0 0 1 28.0064-7.2704l168.8064 45.9776c0.256 0 0.3584-0.2048 0.5632-0.2048a7.3728 7.3728 0 0 1 5.3248 2.1504l451.328 451.072c13.4144 13.4656 20.7872 31.744 20.7872 51.6096 0 22.528-9.5744 45.056-26.3168 61.7472l-42.5984 42.7008a88.4224 88.4224 0 0 1-61.7984 26.2656c-19.9168 0-38.1952-7.3216-51.6608-20.6848L339.1488 327.168c-0.512-0.4096-0.3584-1.024-0.7168-1.536z m569.4464 335.36l-44.8512-44.7488-72.704 73.7792 44.2368 44.1856c6.9632 7.0144 20.5312 5.9904 28.5184-2.048l42.6496-42.6496a23.2448 23.2448 0 0 0 7.0144-16.2304c0-4.8128-1.7408-9.1648-4.864-12.288z m-489.1648-342.4768l325.6832 325.632 72.704-73.8816-325.0688-324.9664-73.3184 73.216zM359.424 186.624l23.552 86.3232 62.7712-62.72-86.3232-23.6032zM936.4992 482.304a31.232 31.232 0 0 1-31.232-31.232v-420.5056c0-22.0672-17.8688-39.936-39.936-39.936H153.4464a40.0384 40.0384 0 0 0-40.0384 39.936V716.9536c0 22.0672 17.9712 40.0384 40.0384 40.0384h458.4448a31.1296 31.1296 0 0 1 0 62.208H148.7872A97.6384 97.6384 0 0 1 51.2 721.664v-695.8592c0-53.8112 43.776-97.4848 97.5872-97.4848h721.2032a97.6384 97.6384 0 0 1 97.5872 97.4848v425.472a31.232 31.232 0 0 1-31.0784 31.0272z"  horiz-adv-x="1024" />

    
    <glyph glyph-name="btn-description-swit" unicode="&#58882;" d="M37.668571 502.491429h942.518858c21.284571 0 37.741714 18.066286 37.741714 39.936a40.228571 40.228571 0 0 1-21.942857 36.059428c-0.585143 0.658286-1.170286 1.316571-1.170286 1.974857L707.803429 884.443429a36.644571 36.644571 0 0 1-53.540572 0c-14.628571-15.506286-14.628571-41.252571 0-56.685715l231.716572-245.394285H37.668571c-21.211429 0-37.668571-18.066286-37.668571-39.936 0-21.942857 16.384-39.936 37.668571-39.936z m948.662858-236.982858H43.812571c-21.284571 0-37.741714-18.066286-37.741714-39.936 0-16.091429 9.142857-29.622857 21.942857-36.059428 0.585143-0.658286 1.170286-1.316571 1.170286-1.974857l287.012571-303.981715a36.644571 36.644571 0 0 1 53.540572 0c14.628571 15.506286 14.628571 41.252571 0 56.685715L138.020571 185.636571h848.310858c21.211429 0 37.668571 18.066286 37.668571 39.936 0 21.942857-16.384 39.936-37.668571 39.936z"  horiz-adv-x="1024" />

    
    <glyph glyph-name="btn-description-shar" unicode="&#58883;" d="M820.5312-74.24H203.4688a149.8624 149.8624 0 0 0-149.7088 149.7088V692.5312A149.8624 149.8624 0 0 0 203.4688 842.24H512a31.0272 31.0272 0 1 0 0-62.0544H203.4688c-48.3328 0-87.6544-39.3216-87.6544-87.6544v-617.0112c0-48.384 39.3216-87.6544 87.6544-87.6544h617.0112c48.384 0 87.6544 39.2704 87.6544 87.552V323.072a31.0272 31.0272 0 1 0 62.1056 0v-247.552a149.8624 149.8624 0 0 0-149.7088-149.7088z m115.8144 768.4096a31.0784 31.0784 0 0 0 5.632-43.008L821.248 490.1376a31.0272 31.0272 0 0 0-49.7152 37.2224l88.2688 110.6944c-168.192-7.936-293.7344-56.6784-373.8112-144.896-48.4352-53.4016-76.8-117.6064-89.344-186.5216-7.6288-41.6256-8.2432-77.5168-6.2464-96.1536a31.0784 31.0784 0 0 0-27.648-34.0992l-1.6896-0.1024H359.424a30.9248 30.9248 0 0 0-30.8224 27.648c-2.7136 25.7024-2.2016 65.9456 6.656 114.3808 14.4896 78.9504 47.4624 153.088 104.1408 215.8592 91.3408 101.0688 231.0144 156.7232 413.7984 161.536L771.584 791.04a31.0272 31.0272 0 0 0 47.1552 40.3456l117.5552-137.216z"  horiz-adv-x="1024" />

    
    <glyph glyph-name="btn-description-view" unicode="&#58884;" d="M784.5888 626.688a35.0208 35.0208 0 0 1-34.9184 34.8672H304.5888a35.0208 35.0208 0 0 1-34.9184-34.816c0-19.1488 15.6672-34.8672 34.9184-34.8672h445.0816a35.0208 35.0208 0 0 1 34.9184 34.816zM304.5888 453.1712a35.0208 35.0208 0 0 1-34.9184-34.816c0-19.1488 15.6672-34.9184 34.9184-34.9184h207.872a34.816 34.816 0 1 1 0 69.7344h-207.872z m500.5312-357.0688a30.9248 30.9248 0 0 1-7.4752 5.632 171.008 171.008 0 0 1 31.232 98.7136c0 95.7952-78.7968 173.3632-175.9232 173.3632s-175.872-77.568-175.872-173.3632c0-95.744 78.7456-173.312 175.872-173.312 35.584 0 68.7616 10.4448 96.512 28.3648a34.816 34.816 0 0 1 6.2976-8.704l90.624-90.4704a34.9184 34.9184 0 0 1 49.408 49.3056l-90.624 90.4704z m-152.1664-0.6656c-58.8288 0-106.5984 47.0528-106.5984 105.0112 0 58.0096 47.7696 105.0624 106.5984 105.0624 58.88 0 106.5984-47.0528 106.5984-105.0624 0-57.9584-47.616-104.96-106.5984-104.96zM211.968-32.6656h387.6352a34.9184 34.9184 0 0 0 34.6112-34.8672c0-19.2512-15.6672-34.8672-35.0208-34.8672H216.0128A139.52 139.52 0 0 0 76.8 36.608V731.392A139.52 139.52 0 0 0 216.064 870.4h624.3328c76.544 0 106.5984-62.5664 106.5984-139.008l0.2048-492.9024c0-19.2-15.6672-34.816-35.0208-34.816a34.9696 34.9696 0 0 0-35.0208 34.816l-0.3584 491.8272c0 38.1952-31.2832 69.4784-69.632 69.4784H211.968c-38.2976 0-69.632-31.232-69.632-69.4784v-693.504c0-38.1952 31.3344-69.4784 69.632-69.4784z"  horiz-adv-x="1024" />

    
    <glyph glyph-name="left-menu-icon--x-" unicode="&#58885;" d="M797.779309-62.841208h-79.402104l-59.476912 146.089632C821.885805 142.298672 938.663644 296.06825 938.663644 476.546971 938.663644 707.798666 747.262334 896 512 896S85.336356 707.841333 85.336356 476.546971c0-177.748074 113.193865-329.640332 272.296737-390.610566-0.085333-0.298665-0.341331-0.426664-0.426663-0.725329l-60.159574-148.052284H239.404598a33.279764 33.279764 0 0 1-29.055795-16.170552 32.085106 32.085106 0 0 1 0-32.853101 33.279764 33.279764 0 0 1 29.013128-16.127886H797.864642a33.279764 33.279764 0 0 1 29.226459 16.127886 32.085106 32.085106 0 0 1 0 32.938433 33.279764 33.279764 0 0 1-29.269126 16.08522zM151.59722 476.546971c0 195.369283 161.705521 354.30149 360.40278 354.30149 198.739926 0 360.40278-158.932208 360.40278-354.30149 0-195.411949-161.705521-354.344157-360.40278-354.344157-198.739926 0-360.40278 158.974874-360.40278 354.344157z m267.091441-415.485057c0.853327 2.005319 0.767995 4.095971 1.151992 6.143957 29.738456-6.485287 60.500905-10.154595 92.159347-10.154595 28.714463 0 56.746265 2.901313 83.882073 8.234608 0.341331-1.535989 0.255998-3.071978 0.853327-4.565301l50.303643-123.561791h-278.611359l50.260977 123.903122zM464.939 709.974651c0.085333 13.397238 5.461295 26.197148 15.061227 35.711747 9.471933 9.343934 22.826505 14.762562 36.266409 14.762562 13.61057-0.085333 26.623811-5.375962 36.309077-14.762562 9.557266-9.514599 14.933228-22.314509 15.01856-35.711747a50.644975 50.644975 0 0 0-15.01856-35.669081 52.436962 52.436962 0 0 0-36.26641-14.805228c-13.482571 0-26.837143 5.461295-36.309076 14.805228a50.644975 50.644975 0 0 0-15.061227 35.669081z m268.371432-300.66987c0 119.977817-99.28463 217.598459-221.310432 217.598458-122.025802 0-221.353099-97.620642-221.353099-217.598458 0-120.020483 99.28463-217.598459 221.353099-217.598459 122.025802 0 221.353099 97.620642 221.353099 217.598459z m-376.402667 0c0 84.052738 69.546174 152.44692 155.092235 152.44692 85.503394 0 155.092235-68.394182 155.092235-152.44692s-69.546174-152.489587-155.092235-152.489587c-85.503394 0-155.092235 68.394182-155.092235 152.489587z"  horiz-adv-x="1024" />

    
    <glyph glyph-name="left-menu-icon--x-1" unicode="&#58886;" d="M510.976 874.666667s0-0.512 0 0C455.509333 743.253333 85.333333 750.421333 85.333333 750.421333v-485.205333s194.090667-316.288 425.642667-371.712C742.528-51.626667 938.666667 265.216 938.666667 265.216V750.421333C938.666667 750.933333 566.442667 743.68 510.976 874.666667z m361.472-588.373334c-118.101333-173.568-284.458667-298.325333-361.472-321.962666-77.013333 23.125333-239.274667 147.882667-357.376 321.408V683.648a1411.413333 1411.413333 0 0 1 140.202667 14.378667c70.826667 10.794667 158.122667 29.269333 217.173333 70.869333v0.512c59.050667-42.112 146.346667-60.586667 217.173333-70.826667 53.930667-8.234667 104.746667-12.373333 144.298667-14.421333v-397.909333zM544.853333 616.96h-66.218666v-193.621333H282.453333v-68.778667h196.138667v-193.578667h66.218667V354.56h196.138666v68.778667H544.853333V616.96z"  horiz-adv-x="1024" />

    
    <glyph glyph-name="left-menu-icon--x-2" unicode="&#58887;" d="M754.773333 334.208c-77.952 0-141.312-64.512-141.312-143.786667 0-79.232 63.36-143.744 141.269334-143.744 68.394667 0 125.525333 49.706667 138.453333 115.498667a30.464 30.464 0 0 1 2.816 12.544V843.989333a30.72 30.72 0 0 1-11.306667 23.808 29.952 29.952 0 0 1-25.557333 6.144L288.426667 751.274667a30.592 30.592 0 0 1-24.106667-29.952v-566.186667a138.709333 138.709333 0 0 1-80.341333 25.728C106.026667 180.864 42.666667 116.352 42.666667 37.077333S106.026667-106.666667 183.893333-106.666667c77.952 0 141.312 64.469333 141.312 143.786667 0 3.413333-0.768 6.613333-0.981333 9.984 0.256 1.706667 0.981333 3.157333 0.981333 4.949333V512.554667l509.866667 109.568v-313.685334a138.581333 138.581333 0 0 1-80.341333 25.770667z m0-226.133333c-44.330667 0-80.384 36.949333-80.384 82.389333s36.053333 82.432 80.341334 82.432 80.298667-36.992 80.298666-82.432-36.010667-82.432-80.298666-82.432zM183.893333-45.312c-44.288 0-80.298667 36.992-80.298666 82.432s36.010667 82.432 80.298666 82.432c44.288 0 80.341333-36.992 80.341334-82.432s-36.053333-82.432-80.341334-82.432zM325.162667 575.232V696.576l509.866666 109.525333V684.8L325.12 575.232z"  horiz-adv-x="1024" />

    
    <glyph glyph-name="left-menu-icon--x-3" unicode="&#58888;" d="M512 853.333333C253.226667 853.333333 42.666667 642.773333 42.666667 384c0-258.816 210.56-469.333333 469.333333-469.333333 258.816 0 469.333333 210.517333 469.333333 469.333333 0 258.773333-210.517333 469.333333-469.333333 469.333333z m0-874.837333c-223.573333 0-405.504 181.930667-405.504 405.504 0 223.573333 181.930667 405.504 405.504 405.504 223.573333 0 405.504-181.930667 405.504-405.504 0-223.573333-181.930667-405.504-405.504-405.504z m0 290.944c62.72 0 113.792 49.152 113.792 109.568V520.832c0 60.458667-51.029333 109.653333-113.792 109.653333-62.72 0-113.792-49.194667-113.792-109.653333v-141.824c0-60.416 51.029333-109.568 113.792-109.568zM461.525333 520.832c0 25.514667 22.656 46.293333 50.474667 46.293333s50.474667-20.778667 50.474667-46.293333v-141.824c0-25.514667-22.613333-46.250667-50.474667-46.250667-27.818667 0-50.474667 20.736-50.474667 46.250667V520.832z m264.96-163.328c0.085333-1.962667 0.298667-3.882667 0.298667-5.888A215.04 215.04 0 0 0 512 136.789333a215.04 215.04 0 0 0-214.784 214.826667c0 2.005333 0.213333 3.925333 0.298667 5.888h63.317333c-0.085333-1.962667-0.298667-3.882667-0.298667-5.888A151.637333 151.637333 0 0 1 512 200.106667a151.637333 151.637333 0 0 1 151.466667 151.466666c0 2.005333-0.213333 3.925333-0.298667 5.888h63.317333z"  horiz-adv-x="1024" />

    
    <glyph glyph-name="left-menu-icon--x-4" unicode="&#58889;" d="M911.573333 810.666667H112.426667C98.56 810.666667 85.333333 797.098667 85.333333 782.805333v-766.293333c-0.128-6.4 11.861333-20.608 15.658667-25.386667a85.973333 85.973333 0 0 1 68.266667-33.792c19.456 0 38.613333 6.954667 53.973333 19.541334a34.218667 34.218667 0 0 0 26.282667 7.68c9.472-1.109333 18.005333-5.973333 24.021333-13.653334a25.898667 25.898667 0 0 1 19.84-9.898666 25.898667 25.898667 0 0 1 7.210667 1.024c12.586667 2.304 27.733333 14.122667 28.586666 26.666666 0.341333 16.170667 0 766.250667 0 766.250667h365.653334v-766.293333c0-12.458667 15.829333-24.064 27.648-26.368a23.381333 23.381333 0 0 1 10.112-0.896 24.746667 24.746667 0 0 1 17.066666 9.813333 35.114667 35.114667 0 0 0 50.261334 5.888 85.930667 85.930667 0 0 1 64-18.944 85.504 85.504 0 0 1 58.154666 33.152c4.010667 4.949333 16.810667 18.901333 16.597334 25.258667V782.805333c-0.128 14.293333-13.354667 27.861333-27.093334 27.861334zM169.301333 10.154667a34.773333 34.773333 0 0 0-4.266666 0.256c-6.826667 0.768-20.053333 1.621333-25.514667 6.144V754.944h40.618667l2.261333-742.186667a34.304 34.304 0 0 0-13.098667-2.602666z m105.642667 20.309333c-4.949333 1.536-14.976 6.144-19.626667 6.613333a86.784 86.784 0 0 1-9.813333 0.554667c-3.925333 0-20.821333-6.613333-24.746667-7.168V754.944h54.186667v-724.48z m528.256 0c-3.968 0.554667-21.845333 7.210667-25.728 7.210667-3.285333 0-6.613333-0.213333-9.770667-0.597334-4.906667-0.554667-13.866667-5.162667-18.645333-6.613333V754.944h54.186667v-724.48z m81.28-13.909333c-5.12-4.394667-19.541333-5.376-26.453333-6.144a34.090667 34.090667 0 0 0-4.181334-0.256c-4.522667 0-5.717333 4.608-9.984 6.4V754.944h40.618667v-738.389333z"  horiz-adv-x="1024" />

    
    <glyph glyph-name="left-menu-icon--x-5" unicode="&#58890;" d="M676.39936-42.666667c-104.874667 0-192 36.522667-258.986667 108.544-66.389333 71.509333-100.096 164.138667-100.096 275.370667 0 102.144 34.389333 191.018667 102.229334 264.362667 68.352 73.856 154.752 111.274667 256.896 111.274666a355.84 355.84 0 0 0 171.093333-44.074666A367.957333 367.957333 0 0 0 981.338027 548.821333l-39.594667-25.6a322.944 322.944 0 0 1-116.821333 108.330667 309.376 309.376 0 0 1-148.522667 38.272c-89.685333 0-162.304-31.445333-222.165333-96.085333-59.52-64.298667-89.685333-142.592-89.685334-232.490667 0-98.986667 29.44-180.821333 87.594667-243.456 58.453333-62.933333 131.84-93.525333 224.256-93.525333 60.501333 0 111.744 11.136 152.106667 33.024 40.832 22.186667 79.146667 57.941333 113.834666 106.154666l38.4-27.392c-38.826667-53.973333-82.432-94.293333-129.536-119.893333-47.402667-25.813333-106.197333-38.826667-174.805333-38.826667zM193.626027 521.514667c-41.770667 0-77.696 13.952-106.752 41.642666A136.106667 136.106667 0 0 0 42.67136 665.514667c0 40.106667 14.890667 74.709333 44.117333 102.912A147.072 147.072 0 0 0 192.004693 810.666667c42.965333 0 78.933333-13.696 106.88-40.618667 28.16-27.136 42.496-61.866667 42.496-103.466667 0-41.386667-14.293333-76.330667-42.368-103.850666-27.989333-27.306667-63.445333-41.216-105.386666-41.216zM192.004693 763.648c-28.373333 0-52.053333-9.472-72.32-29.013333a91.733333 91.733333 0 0 1-29.696-69.12c0-27.178667 9.642667-49.621333 29.568-68.394667 40.618667-38.528 108.117333-38.272 146.261334-0.853333 18.986667 18.56 28.245333 41.6 28.245333 70.314666 0 28.672-9.173333 51.498667-28.117333 69.674667-19.114667 18.389333-43.264 27.392-73.941334 27.392z"  horiz-adv-x="1024" />

    
    <glyph glyph-name="left-menu-icon--x-6" unicode="&#58891;" d="M240.981333 150.784a29.781333 29.781333 0 0 0 36.437334-20.394667 28.714667 28.714667 0 0 0-21.12-35.242666l-53.376-13.696c-15.957333-4.010667-32.256 5.077333-36.437334 20.394666a28.757333 28.757333 0 0 0 21.162667 35.242667l53.333333 13.696zM305.92-4.266667a30.592 30.592 0 0 0 42.069333 0 28.117333 28.117333 0 0 0 0-40.746666l-39.125333-37.674667a30.592 30.592 0 0 0-42.069333 0 28.117333 28.117333 0 0 0 0 40.746667l39.125333 37.674666z m530.346667 134.570667c16.554667-4.010667 26.368-19.84 21.888-35.413333-4.309333-15.36-21.248-24.490667-37.674667-20.352l-55.552 13.824c-16.512 4.138667-26.325333 19.968-21.845333 35.413333 4.309333 15.36 21.248 24.490667 37.674666 20.352l55.552-13.824z m-124.117334-141.738667l40.661334-37.674666a27.434667 27.434667 0 0 0 0-40.789334 32.256 32.256 0 0 0-43.52 0l-40.661334 37.674667a27.434667 27.434667 0 0 0 0 40.789333 32.256 32.256 0 0 0 43.52 0z m-186.496-3.669333c16.384 0 29.781333-12.8 29.781334-28.757333v-53.248a29.354667 29.354667 0 0 0-29.781334-28.757334 29.354667 29.354667 0 0 0-29.781333 28.757334v53.248c0 15.829333 13.397333 28.757333 29.781333 28.757333z m29.866667 640.128c214.528-22.954667 385.237333-211.498667 385.237333-429.056l-2.133333-27.306667-219.306667 1.792c-16.981333-92.501333-104.533333-161.365333-207.36-161.365333-102.912 0-190.378667 68.821333-205.226666 159.573333l-223.573334 2.133334v25.173333c0 228.650667 188.074667 423.509333 412.842667 428.885333V863.488c0 14.506667 13.397333 26.112 29.781333 26.112 16.298667 0 29.781333-11.648 29.781334-26.112V625.066667zM512 63.829333c71.765333 0 133.674667 45.098667 151.637333 104.746667l-301.312 2.645333c16-62.293333 77.994667-107.392 149.674667-107.392z m-371.2 159.445334l742.528-2.261334c-13.397333 193.962667-178.986667 351.530667-371.328 351.530667-191.744 0-356.778667-156.373333-371.2-349.269333z"  horiz-adv-x="1024" />

    
    <glyph glyph-name="left-menu-icon--x-7" unicode="&#58892;" d="M670.933333 407.125333L456.96 530.56a26.752 26.752 0 0 1-40.106667-23.168v-246.784a26.709333 26.709333 0 0 1 40.106667-23.168l213.930667 123.434667a26.709333 26.709333 0 0 1 0 46.250666z m-200.533333-100.266666v154.325333L604.074667 384l-133.76-77.184zM877.824 810.666667H146.090667C112.64 810.666667 85.333333 783.402667 85.333333 749.909333v-731.818666C85.333333-15.36 112.64-42.666667 146.176-42.666667h731.648C911.36-42.666667 938.666667-15.402667 938.666667 18.090667V749.909333C938.666667 783.36 911.36 810.666667 877.824 810.666667zM138.752 631.338667h746.410667V129.28H138.794667V631.338667z m7.381333 125.909333h731.648c4.096 0 7.381333-3.285333 7.381334-7.338667v-65.194666H138.794667V749.909333c0 4.053333 3.285333 7.338667 7.381333 7.338667z m731.648-746.496H146.176a7.381333 7.381333 0 0 0-7.381333 7.338667V75.946667h746.410666v-57.813334a7.381333 7.381333 0 0 0-7.381333-7.338666z"  horiz-adv-x="1024" />

    
    <glyph glyph-name="title-icon-notice" unicode="&#58893;" d="M592.969143 705.536a49.152 49.152 0 0 1-45.933714 3.510857l-310.272-136.045714H48.274286c-26.624 0-48.274286-21.211429-48.274286-47.323429v-283.282285c0-12.580571 5.12-24.649143 14.116571-33.572572 9.069714-8.850286 21.357714-13.897143 34.157715-13.897143h188.489143l310.272-135.972571a49.005714 49.005714 0 0 1 45.933714 3.584 47.104 47.104 0 0 1 22.089143 39.716571V665.746286a47.177143 47.177143 0 0 1-22.089143 39.789714z m382.756571-275.017143h-199.826285c-26.697143 0-48.274286-21.211429-48.274286-47.396571 0-26.112 21.577143-47.396571 48.274286-47.396572h199.826285c26.624 0 48.274286 21.211429 48.274286 47.396572a47.835429 47.835429 0 0 1-48.274286 47.396571z m-228.278857 69.778286a48.713143 48.713143 0 0 1 26.404572 7.753143l164.937142 106.057143a47.104 47.104 0 0 1 21.942858 42.276571 47.396571 47.396571 0 0 1-26.550858 39.789714 49.078857 49.078857 0 0 1-48.274285-2.852571L720.822857 587.337143a46.957714 46.957714 0 0 1-19.748571-53.174857 48.201143 48.201143 0 0 1 46.299428-33.792z m191.341714-348.013714l-164.937142 106.057142a48.859429 48.859429 0 0 1-66.852572-13.750857 46.811429 46.811429 0 0 1 13.897143-65.609143l164.937143-106.057142a49.005714 49.005714 0 0 1 66.925714 13.677714 46.665143 46.665143 0 0 1-13.897143 65.682286z"  horiz-adv-x="1024" />

    
    <glyph glyph-name="title-icon-manage" unicode="&#58894;" d="M744.341817 285.36484v5.848296a46.49395 46.49395 0 0 0 93.061003 0v-5.848296c17.033161-4.386222 33.189077-11.184865 47.956023-19.884205l4.240015 4.166911a46.49395 46.49395 0 0 0 65.793325-65.793325l-4.240015-4.166911c8.772443-14.766946 15.571087-30.922863 19.884205-48.029127h5.848296a46.49395 46.49395 0 0 0 0-93.061003h-5.848296a184.22131 184.22131 0 0 0-19.884205-47.956023l4.166911-4.240015a46.49395 46.49395 0 1 0-65.793325-65.793325l-4.166911 4.240015a184.952347 184.952347 0 0 0-47.956023-19.884205v-5.848296a46.49395 46.49395 0 0 0-93.061003 0v5.848296a184.952347 184.952347 0 0 0-48.029127 19.884205l-4.166911-4.166911a46.49395 46.49395 0 0 0-65.793325 65.793325l4.166911 4.166911a184.952347 184.952347 0 0 0-19.884205 47.956023h-5.848296a46.49395 46.49395 0 0 0 0 93.061003h5.848296a184.22131 184.22131 0 0 0 19.884205 48.029127l-4.166911 4.166911a46.49395 46.49395 0 0 0 65.793325 65.793325l4.166911-4.166911a184.952347 184.952347 0 0 0 48.029127 19.884205zM478.682991 12.176334H46.49395A46.49395 46.49395 0 0 0 0 58.59718v46.567053a372.097805 372.097805 0 0 0 620.284847 277.428521 325.457648 325.457648 0 0 1-141.601856-370.489524zM372.170908 477.335142c-102.783794 0-186.122006 93.718936-186.122006 209.295877C186.048902 802.281064 269.387114 896 372.170908 896s186.048902-93.718936 186.048903-209.368981c0-115.576941-83.265108-209.295877-186.048903-209.295877z m418.664859-465.231912a93.061003 93.061003 0 1 1 0 186.122006 93.061003 93.061003 0 0 1 0-186.122006z"  horiz-adv-x="1024" />

    
    <glyph glyph-name="title-icon-main" unicode="&#58895;" d="M1023.488 478.866286c1.170286-7.533714 0-45.568 0-45.568 0-35.328-30.573714-63.634286-66.998857-60.489143-32.329143 2.779429-56.027429 31.597714-56.027429 63.634286v7.972571a0.585143 0.585143 0 0 1-0.292571 0.438857L512.365714 756.809143a0.658286 0.658286 0 0 1-0.731428 0L123.830857 444.854857a0.585143 0.585143 0 0 1-0.292571-0.438857v-7.972571c0-32.036571-23.698286-60.854857-56.027429-63.634286a61.220571 61.220571 0 0 0-66.998857 60.489143s-1.170286 38.034286 0 45.568c2.486857 16.457143 16.018286 36.425143 27.282286 45.494857L473.088 882.541714c1.755429 1.462857 3.657143 2.413714 5.485714 3.657143 1.609143 0.950857 3.072 2.194286 4.681143 2.998857 2.340571 1.243429 4.827429 2.048 7.241143 2.925715 1.316571 0.512 2.56 1.097143 3.876571 1.462857 2.340571 0.731429 4.754286 1.097143 7.168 1.462857 1.462857 0.292571 2.925714 0.731429 4.461715 0.877714 2.048 0.146286 4.022857 0 5.997714 0 1.974857 0 3.949714 0.146286 5.997714 0 1.462857-0.146286 2.925714-0.585143 4.461715-0.877714 2.413714-0.365714 4.827429-0.731429 7.168-1.462857 1.316571-0.365714 2.56-0.950857 3.876571-1.462857 2.413714-0.877714 4.900571-1.682286 7.241143-2.925715 1.609143-0.877714 3.072-2.048 4.681143-3.072 1.828571-1.170286 3.730286-2.194286 5.485714-3.584L996.205714 524.434286c11.264-9.069714 24.795429-29.037714 27.282286-45.494857z m-491.52 224.256l337.627429-276.992c7.314286-5.997714 11.629714-15.067429 11.629714-24.576v-479.451429a49.956571 49.956571 0 0 0-49.810286-50.102857H630.125714v291.986286a20.187429 20.187429 0 0 1-20.041143 20.187428H413.988571a20.187429 20.187429 0 0 1-20.114285-20.187428V-128H192.585143a49.956571 49.956571 0 0 0-49.737143 50.102857V401.554286c0 9.508571 4.242286 18.578286 11.556571 24.576l337.700572 276.992a31.451429 31.451429 0 0 0 39.789714 0z"  horiz-adv-x="1024" />

    
    <glyph glyph-name="title-icon-znms" unicode="&#58896;" d="M850.651429-54.857143H68.022857l109.568 503.369143c6.217143 33.060571 27.867429 62.244571 62.537143 62.244571h720.310857c34.523429 0 70.436571-27.501714 62.537143-62.244571-5.266286-23.186286-41.764571-170.203429-109.568-441.051429-7.826286-32.329143-28.086857-62.317714-62.683429-62.317714zM172.105143 580.754286h704.512v61.147428a62.537143 62.537143 0 0 1-62.683429 62.244572H438.272v56.393143A62.537143 62.537143 0 0 1 375.661714 822.857143H62.610286A62.537143 62.537143 0 0 1 0 760.539429v-729.819429l109.494857 487.862857c8.045714 34.596571 28.086857 62.171429 62.610286 62.171429z"  horiz-adv-x="1024" />

    
    <glyph glyph-name="btn-amount-add-line-" unicode="&#58897;" d="M849.373867 896H175.9232C93.730133 896 0 824.1152 0 712.3968v-660.002133C0-32.699733 69.393067-128 181.521067-128h663.552c52.360533 0 178.961067 41.506133 178.961066 188.0064V713.045333C1024 838.997333 916.138667 896 849.373867 896z m122.845866-837.12c0-136.2944-128.7168-135.2704-128.7168-135.2704H185.2416c-132.5056 0-134.485333 128.887467-134.485333 128.887467V713.045333c0 78.574933 60.8256 132.881067 134.485333 132.881067h648.123733c134.621867 0 138.888533-123.562667 138.888534-123.562667l-0.034134-663.483733zM183.5008 409.531733v-50.3808h302.933333v-303.7184h51.2v302.8992h302.8992v51.2h-302.8992V712.4992h-51.2v-302.967467H183.5008z"  horiz-adv-x="1024" />

    
    <glyph glyph-name="btn-arrow-right-blue" unicode="&#58898;" d="M307.059751-128H267.013844A60.751461 60.751461 0 0 0 227.423004-83.630956v27.531561a61.434061 61.434061 0 0 0 16.382417 29.69313l404.782204 407.626374L241.871386 790.780518A61.434061 61.434061 0 0 0 227.423004 813.988941V854.717448A60.865227 60.865227 0 0 0 328.334139 877.925872l450.061383-453.133086a61.434061 61.434061 0 0 0 0-87.031587L330.154407-113.437852A60.751461 60.751461 0 0 0 307.287284-128z"  horiz-adv-x="1024" />

    
    <glyph glyph-name="btn-amount-add-ovalb" unicode="&#58899;" d="M512-128C229.2224-128 0 101.2224 0 384S229.2224 896 512 896s512-229.2224 512-512-229.2224-512-512-512z m204.8 541.2352h-175.5648V588.8H482.816v-175.5648H307.2v-58.4704h175.5648V179.2h58.4704v175.5648H716.8V413.184z"  horiz-adv-x="1024" />

    
    <glyph glyph-name="title-icon-ztms-blue" unicode="&#58900;" d="M987.428571 565.833143L512 896 36.571429 565.833143 512 235.739429l475.428571 330.093714zM512 162.084571L92.379429 442.733714 36.571429 384 512 53.833143 987.428571 384l-56.539428 59.977143L512 162.084571z m0-181.906285L92.379429 260.827429 36.571429 202.166857 512-128l475.428571 330.166857-56.539428 59.977143L512-19.894857z"  horiz-adv-x="1024" />

    
    <glyph glyph-name="btn-cross-white--" unicode="&#58901;" d="M128.184271 872.486763A74.052847 74.052847 0 1 1 23.519027 767.821519l383.602494-383.748268-383.821154-383.748268A74.052847 74.052847 0 0 1 128.038498-104.340261L511.859652 279.262233l383.675381-383.748267a74.052847 74.052847 0 1 1 104.665245 104.665244L616.597783 384.000364l383.821155 383.675381A74.052847 74.052847 0 0 1 895.680807 872.34099L511.859652 488.811382 128.184271 872.486763z"  horiz-adv-x="1027" />

    
    <glyph glyph-name="btn-description-dot-" unicode="&#58902;" d="M692.7872 676.6592H109.056C48.8448 676.6592 0 627.6096 0 567.2448v-585.8304C0-79.0016 48.8448-128 109.056-128H692.736c60.2112 0 109.056 49.0496 109.056 109.4144V567.2448a109.4656 109.4656 0 0 1-109.056 109.4144z m36.0448-695.0912c0-19.968-16.128-36.352-36.1472-36.352H109.1584a36.2496 36.2496 0 0 0-36.1472 36.352V39.936l165.4784 166.0416a36.7104 36.7104 0 0 0 46.4896 4.608l118.6816-79.36a109.568 109.568 0 0 1 138.2912 13.7216l186.88 187.4944v-350.9248z m0 454.2464L490.496 196.608a36.7104 36.7104 0 0 0-46.5408-4.5568l-118.6816 79.36a109.568 109.568 0 0 1-138.24-13.7216L72.96 143.36V567.296c0 19.968 16.128 36.3008 36.1472 36.3008h583.7824c19.8656 0 36.1472-16.2304 36.1472-36.3008l-0.256-131.4304zM309.76 530.3808c-50.176 0-91.0848-40.96-91.0848-91.392 0-50.3808 40.8576-91.392 91.136-91.392 50.176 0 91.0336 40.96 91.0336 91.392 0 50.432-40.8064 91.392-91.0848 91.392z m0-109.6704a18.2272 18.2272 0 0 0-18.176 18.2784 18.2272 18.2272 0 1 0 36.4032 0 18.2272 18.2272 0 0 0-18.2272-18.2784z m382.976 255.9488H109.056C48.8448 676.6592 0 627.6096 0 567.2448v-585.8304C0-79.0016 48.8448-128 109.056-128H692.736c60.2112 0 109.056 49.0496 109.056 109.4144V567.2448a109.4656 109.4656 0 0 1-109.056 109.4144z m36.0448-695.0912c0-19.968-16.128-36.352-36.1472-36.352H109.1584a36.2496 36.2496 0 0 0-36.1472 36.352V39.936l165.4784 166.0416a36.7104 36.7104 0 0 0 46.4896 4.608l118.6816-79.36a109.568 109.568 0 0 1 138.2912 13.7216l186.88 187.4944v-350.9248z m0 454.2464L490.496 196.608a36.7104 36.7104 0 0 0-46.5408-4.5568l-118.6816 79.36a109.568 109.568 0 0 1-138.24-13.7216L72.96 143.36V567.296c0 19.968 16.128 36.3008 36.1472 36.3008h583.7824c19.8656 0 36.1472-16.2304 36.1472-36.3008l-0.256-131.4304z m-36.0448 240.8448H109.056C48.8448 676.6592 0 627.6096 0 567.2448v-585.8304C0-79.0016 48.8448-128 109.056-128H692.736c60.2112 0 109.056 49.0496 109.056 109.4144V567.2448a109.4656 109.4656 0 0 1-109.056 109.4144z m36.0448-695.0912c0-19.968-16.128-36.352-36.1472-36.352H109.1584a36.2496 36.2496 0 0 0-36.1472 36.352V39.936l165.4784 166.0416a36.7104 36.7104 0 0 0 46.4896 4.608l118.6816-79.36a109.568 109.568 0 0 1 138.2912 13.7216l186.88 187.4944v-350.9248z m0 454.2464L490.496 196.608a36.7104 36.7104 0 0 0-46.5408-4.5568l-118.6816 79.36a109.568 109.568 0 0 1-138.24-13.7216L72.96 143.36V567.296c0 19.968 16.128 36.3008 36.1472 36.3008h583.7824c19.8656 0 36.1472-16.2304 36.1472-36.3008l-0.256-131.4304z m-387.8912 324.608a32.256 32.256 0 0 0-3.2768 3.8912 33.0752 33.0752 0 0 0 8.0384 45.7216A437.1968 437.1968 0 0 0 627.712 894.6688a408.2176 408.2176 0 0 0 266.3424-118.3744 404.992 404.992 0 0 0 113.3056-221.3376c6.8096-41.0112 7.4752-82.5856 2.2016-123.648l61.7984 61.7984a32.6656 32.6656 0 0 0 46.1824 0.8192 32.6656 32.6656 0 0 0-0.8192-46.2336l-147.712-147.712-0.0512-0.0512a33.28 33.28 0 0 0-36.5056-7.8848 31.6928 31.6928 0 0 0-16.3328 42.496c60.928 136.96 33.792 291.9424-68.9152 394.752C723.712 852.7872 528.5376 864.768 383.0784 757.9136a32.256 32.256 0 0 0-42.1376 2.56z"  horiz-adv-x="1126" />

    
    <glyph glyph-name="btn-description-dot-1" unicode="&#58903;" d="M650.752 64.9728a37.376 37.376 0 0 1 37.4784 35.5328l10.9056 437.248c0.512 19.6608-15.872 36.096-36.608 36.5568-21.0432 0.3072-37.888-14.8992-38.4-34.4576l-10.8544-437.76a36.864 36.864 0 0 1 36.608-37.12h0.8704z m-176.7424 0h0.8704c20.736 0 37.12 18.7904 36.6592 38.4L500.6336 541.184c-0.512 19.5584-17.4592 35.5328-38.4 35.1232-20.6848-0.4608-37.12-16.384-36.608-35.9936l10.9056-438.784a38.2976 38.2976 0 0 1 37.4784-36.608z m-17.92 658.2784h214.272v50.688H456.0384v-50.688zM1024 682.8032c0-22.4256-19.2-40.4992-42.9056-40.4992H145.3056C121.5488 642.2528 102.4 660.3776 102.4 682.752c0 22.3744 19.2 40.4992 42.9056 40.4992h235.7248v91.136c0 19.6096 13.824 30.4128 34.56 30.4128h295.2192c20.736 0 34.56-10.8032 34.56-30.3616v-91.2384h235.7248c23.7056 0 42.9056-18.0736 42.9056-40.448v0.0512z m-113.664-135.6288l-32.7168-585.5744c-1.1264-21.504-19.968-38.4-42.752-38.4H291.5328c-22.784 0-41.6256 16.896-42.752 38.4l-32.768 585.5744c-1.2288 22.3232 16.896 41.472 40.6016 42.5984 23.7056 1.0752 43.776-15.9744 45.056-38.2976l30.5152-547.2256h462.0288l30.5664 547.2256c1.2288 22.3232 21.504 39.3216 45.056 38.2976 23.6032-1.1776 41.7792-20.224 40.4992-42.5472z"  horiz-adv-x="1126" />

    
    <glyph glyph-name="btn-description-dot-2" unicode="&#58904;" d="M1014.3744-20.6336l-125.5936 125.5424a197.7344 197.7344 0 1 1-46.4896-46.4896l125.5424-125.5936a32.8704 32.8704 0 0 1 46.5408 46.5408z m-286.5152 108.288a131.6864 131.6864 0 1 0 0 263.3728 131.6864 131.6864 0 0 0 0-263.3728z m98.7648 460.6464a32.9728 32.9728 0 1 1 0 65.9456L299.9808 614.4a32.9728 32.9728 0 0 1 0-65.9456l526.6432-0.1536z m-329.216-197.3248a32.8704 32.8704 0 1 1 0 65.7408H300.032a32.8704 32.8704 0 0 1 0-65.6896h197.4784v-0.0512zM300.032 219.4432v-0.0512H431.616a32.8704 32.8704 0 1 0 0-65.6896H300.032a32.8704 32.8704 0 1 0 0 65.7408z m361.8816-230.4512a32.8704 32.8704 0 1 0 0-65.792H257.4848A154.9312 154.9312 0 0 0 102.4 78.336V689.664A154.9312 154.9312 0 0 0 257.4848 844.8h611.2256a155.136 155.136 0 0 0 155.1872-155.136v-0.1536l-1.3312-404.3264a32.9728 32.9728 0 1 0-65.8944 0.1024v0.1024l1.3312 404.2752a89.2416 89.2416 0 0 1-89.2928 89.344H257.4848A89.344 89.344 0 0 1 168.192 689.664v-611.328a89.2928 89.2928 0 0 1 89.2928-89.344h404.3776z"  horiz-adv-x="1126" />

    
    <glyph glyph-name="left-menu-icon--x-8" unicode="&#58905;" d="M548.266667 299.733333a37.12 37.12 0 0 1-14.933334 13.866667V405.333333c0 11.733333-9.6 21.333333-21.333333 21.333334s-21.333333-9.6-21.333333-21.333334v-90.666666c-6.4-3.2-10.666667-8.533333-14.933334-13.866667l-202.666666-320c-8.533333-12.8-8.533333-29.866667-1.066667-43.733333 7.466667-13.866667 21.333333-22.4 37.333333-22.4h405.333334c16 0 29.866667 8.533333 37.333333 22.4 7.466667 13.866667 7.466667 29.866667-1.066667 43.733333l-202.666666 318.933333zM512 277.333333l67.2-106.666666h-134.4L512 277.333333z m0-320H309.333333l107.733334 170.666667H605.866667l108.8-170.666667H512z m119.466667 416c-11.733333 3.2-18.133333 13.866667-16 26.666667 2.133333 8.533333 3.2 17.066667 3.2 25.6 0 59.733333-48 107.733333-106.666667 107.733333s-106.666667-49.066667-106.666667-107.733333c0-9.6 1.066667-18.133333 3.2-25.6 2.133333-11.733333-4.266667-22.4-16-25.6a21.717333 21.717333 0 0 0-25.6 16c-3.2 11.733333-4.266667 23.466667-4.266666 35.2C362.666667 508.8 429.866667 576 512 576s149.333333-68.266667 149.333333-151.466667c0-12.8-1.066667-24.533333-4.266666-36.266666a20.565333 20.565333 0 0 0-20.266667-16c-2.133333 0-3.2 1.066667-5.333333 1.066666z m81.066666-115.2c-10.666667 6.4-12.8 20.266667-5.333333 32a241.749333 241.749333 0 0 1 41.6 135.466667c0 132.266667-105.6 238.933333-235.733333 238.933333-130.133333 0-235.733333-107.733333-235.733334-238.933333 0-49.066667 14.933333-96 41.6-135.466667a20.906667 20.906667 0 0 0-5.333333-29.866666 20.906667 20.906667 0 0 0-29.866667 5.333333A279.808 279.808 0 0 0 234.666667 424.533333c0 155.733333 124.8 281.6 278.4 281.6 153.6 0 278.4-126.933333 278.4-281.6 0-57.6-17.066667-113.066667-49.066667-160a22.314667 22.314667 0 0 0-29.866667-6.4zM512 853.333333c235.733333 0 426.666667-190.933333 426.666667-426.666666 0-114.133333-43.733333-221.866667-124.8-301.866667-8.533333-8.533333-21.333333-8.533333-29.866667 0-8.533333 8.533333-8.533333 21.333333 0 29.866667A382.421333 382.421333 0 0 1 896 426.666667c0 211.2-171.733333 384-384 384s-384-171.733333-384-384c0-103.466667 39.466667-200.533333 113.066667-273.066667 8.533333-7.466667 8.533333-21.333333 0-29.866667-4.266667-4.266667-9.6-6.4-14.933334-6.4a21.077333 21.077333 0 0 0-14.933333 6.4C130.133333 203.733333 85.333333 311.466667 85.333333 426.666667 85.333333 662.4 276.266667 853.333333 512 853.333333z"  horiz-adv-x="1024" />

    
    <glyph glyph-name="title-icon-ksms" unicode="&#58906;" d="M738.865058 508.28959H285.134942a45.987148 45.987148 0 0 0-45.402256 46.498929c0 25.735256 20.325004 46.572041 45.329145 46.572041h453.803227c25.077253 0 45.402256-20.836784 45.402256-46.572041a45.987148 45.987148 0 0 0-45.329145-46.498929m0-201.641582H285.061831a45.987148 45.987148 0 0 0-45.402257 46.572041c0 25.662145 20.325004 46.498929 45.329145 46.498929h453.803227c25.077253 0 45.402256-20.836784 45.402256-46.498929a45.987148 45.987148 0 0 0-45.329144-46.572041m0-217.141225H285.061831a45.987148 45.987148 0 0 0-45.402257 46.57204c0 25.735256 20.325004 46.498929 45.329145 46.498929h453.803227c25.077253 0 45.402256-20.763673 45.402256-46.498929a45.987148 45.987148 0 0 0-45.329144-46.498929m118.221334 728.921891c51.689847 0 93.509639-42.989576 93.509638-95.922319v-754.291589c0-52.932743-41.819792-95.849207-93.509638-95.849208H166.913608C115.15065-127.561331 73.330858-84.644866 73.330858-31.785235V722.652577c0 52.932743 41.819792 95.849207 93.509639 95.849208h72.892189v-104.549479c0-10.747394 8.480937-19.520777 19.008996-19.520777h113.24975c10.528059 0 19.008996 8.773383 19.008996 19.520777v104.549479h241.999144v-104.549479c0-10.747394 8.554048-19.520777 19.008996-19.520777h113.322861c10.454948 0 19.008996 8.773383 19.008997 19.520777v104.549479h72.819077zM289.009853 725.357704a19.228331 19.228331 0 0 0-19.008996 19.447665v131.600743c0 10.820505 8.554048 19.520777 19.008996 19.520776h52.78652c10.528059 0 19.008996-8.773383 19.008996-19.447665v-131.600742a19.228331 19.228331 0 0 0-19.008996-19.520777H289.009853z m393.339997 0a19.228331 19.228331 0 0 0-19.008996 19.447665v131.600743c0 10.820505 8.480937 19.520777 19.008996 19.520776h52.713409c10.528059 0 19.008996-8.773383 19.008996-19.447665v-131.600742a19.228331 19.228331 0 0 0-19.008996-19.520777H682.34985z"  horiz-adv-x="1024" />

    
    <glyph glyph-name="btn-arrow-left-blue-" unicode="&#58907;" d="M245.361778 428.373333L690.801778 877.966222a60.359111 60.359111 0 0 0 85.959111 0 61.781333 61.781333 0 0 0 0-86.755555L374.328889 384.967111l404.309333-408.234667a61.781333 61.781333 0 0 0 0-86.755555 60.359111 60.359111 0 0 0-85.959111 0L245.361778 341.560889A61.44 61.44 0 0 0 227.555556 384.967111c0 15.701333 5.916444 31.402667 17.806222 43.349333z"  horiz-adv-x="1024" />

    
    <glyph glyph-name="left-menu-icon--x-9" unicode="&#58908;" d="M512-21.333333a405.333333 405.333333 0 0 1 405.333333 405.333333A405.333333 405.333333 0 0 1 512 789.333333 405.333333 405.333333 0 0 1 106.666667 384a405.333333 405.333333 0 0 1 405.333333-405.333333z m0-42.666667C264.576-64 64 136.576 64 384S264.576 832 512 832 960 631.424 960 384 759.424-64 512-64zM344.064 465.237333h-39.253333a49.066667 49.066667 0 0 0-49.109334 48.981334A49.066667 49.066667 0 0 0 304.853333 563.2h39.210667a49.194667 49.194667 0 0 0 88.533333 0h261.802667a49.066667 49.066667 0 0 0 49.194667-48.981333 49.066667 49.066667 0 0 0-49.194667-48.981334H432.64a49.194667 49.194667 0 0 0-88.533333 0z m37.76 42.666667v-21.333333c0-3.413333 2.901333-6.314667 6.485333-6.314667a6.4 6.4 0 0 1 6.528 6.314667v21.333333h299.562667a6.4 6.4 0 0 1 6.528 6.314667 6.4 6.4 0 0 1-6.528 6.314666H394.837333v21.333334a6.4 6.4 0 0 1-6.528 6.314666 6.4 6.4 0 0 1-6.485333-6.314666v-21.333334H304.853333a6.4 6.4 0 0 1-6.485333-6.314666c0-3.413333 2.858667-6.314667 6.485333-6.314667h76.970667z m312.576-87.296a49.066667 49.066667 0 0 0 49.194667-48.981333 49.066667 49.066667 0 0 0-49.194667-48.981334h-39.210667a49.194667 49.194667 0 0 0-88.533333 0H304.853333a49.066667 49.066667 0 0 0-49.152 48.981334 49.066667 49.066667 0 0 0 49.152 48.981333h261.802667a49.194667 49.194667 0 0 0 88.533333 0H694.442667z m-76.970667-42.666667v21.333334a6.4 6.4 0 0 1-6.485333 6.314666 6.4 6.4 0 0 1-6.485333-6.314666v-21.333334H304.853333a6.4 6.4 0 0 1-6.485333-6.314666c0-3.413333 2.858667-6.314667 6.485333-6.314667h299.605334v-21.333333c0-3.413333 2.858667-6.314667 6.485333-6.314667a6.4 6.4 0 0 1 6.485333 6.314667v21.333333h76.970667a6.4 6.4 0 0 1 6.528 6.314667 6.4 6.4 0 0 1-5.973333 6.314666h-77.525334z m76.970667-99.925333a49.066667 49.066667 0 0 0 49.194667-48.981333 49.066667 49.066667 0 0 0-49.194667-48.938667H432.64a49.194667 49.194667 0 0 0-88.533333 0h-39.253334a49.066667 49.066667 0 0 0-49.109333 48.938667 49.066667 49.066667 0 0 0 49.152 48.981333h39.210667a49.194667 49.194667 0 0 0 88.533333 0h261.802667z m0-42.666667H394.837333v21.333334a6.4 6.4 0 0 1-6.528 6.314666 6.4 6.4 0 0 1-6.485333-6.314666v-21.333334H304.853333a6.4 6.4 0 0 1-6.485333-6.314666c0-3.413333 2.858667-6.272 6.485333-6.272h76.970667v-21.333334c0-3.456 2.901333-6.357333 6.485333-6.357333a6.4 6.4 0 0 1 6.528 6.357333v21.333334h299.562667a6.4 6.4 0 0 1 6.528 6.272 6.4 6.4 0 0 1-6.528 6.314666z"  horiz-adv-x="1024" />

    
    <glyph glyph-name="title-icon-ksms1" unicode="&#58909;" d="M738.946075 508.151132c25.086208 0 45.41847 20.844225 45.41847 46.515535a46.003571 46.003571 0 0 1-45.345332 46.588672H284.980787a46.003571 46.003571 0 0 1-45.41847-46.588672c0-25.671309 20.332262-46.515535 45.345332-46.515535h453.965289z m0-201.713592c25.086208 0 45.41847 20.844225 45.41847 46.588672a46.003571 46.003571 0 0 1-45.345332 46.515535H284.980787a46.003571 46.003571 0 0 1-45.41847-46.515535c0-25.744447 20.332262-46.588672 45.345332-46.588672h453.965289z m0-217.21877c25.086208 0 45.41847 20.917363 45.41847 46.588672a46.003571 46.003571 0 0 1-45.345332 46.515535H284.980787a46.003571 46.003571 0 0 1-45.41847-46.515535c0-25.671309 20.332262-46.515535 45.345332-46.515534h453.965289z m118.336691 729.182201c51.708307 0 93.543033-42.931791 93.543032-95.810299V-32.116563c0-52.951646-41.834726-95.883437-93.543032-95.883437H166.790372C115.008928-127.926862 73.174202-84.995072 73.174202-32.116563V722.590672c0 52.951646 41.834726 95.883437 93.543032 95.883437h72.918221v-104.586815c0-10.751232 8.483965-19.527748 19.015784-19.527748h113.290194c10.531819 0 19.015785 8.776516 19.015784 19.527748v104.586815h242.085566v-104.586815c0-10.751232 8.557103-19.527748 19.015784-19.527748h113.363331c10.458682 0 19.015785 8.776516 19.015785 19.527748v104.586815h72.845083zM288.930219 725.369902a19.235197 19.235197 0 0 0-19.015784 19.454611v131.647739c0 10.82437 8.557103 19.527748 19.015784 19.527748h52.805371c10.531819 0 19.015785-8.776516 19.015785-19.45461v-131.64774a19.235197 19.235197 0 0 0-19.015785-19.527748H288.930219z m393.480466 0a19.235197 19.235197 0 0 0-19.015785 19.454611v131.647739c0 10.82437 8.483965 19.527748 19.015785 19.527748h52.732233c10.531819 0 19.015785-8.776516 19.015785-19.45461v-131.64774a19.235197 19.235197 0 0 0-19.015785-19.527748H682.410685z"  horiz-adv-x="1024" />

    
    <glyph glyph-name="btn-amount--white-s" unicode="&#58910;" d="M0 469.333333m85.333333 0l853.333334 0q85.333333 0 85.333333-85.333333l0 0q0-85.333333-85.333333-85.333333l-853.333334 0q-85.333333 0-85.333333 85.333333l0 0q0 85.333333 85.333333 85.333333Z"  horiz-adv-x="1024" />

    
    <glyph glyph-name="btn-triangle--blue-" unicode="&#58911;" d="M819.189453 383.997952c0-17.407687-6.758278-32.357818-20.274835-45.055189L321.02242-108.844377A67.78758 67.78758 0 0 0 273.100083-127.992832a67.78758 67.78758 0 0 0-48.127134 19.046057A59.698125 59.698125 0 0 0 204.800512-63.993984V831.989888c0 17.407687 6.758278 32.357818 20.274835 45.055189A67.78758 67.78758 0 0 0 273.100083 895.988736c18.431668 0 34.405781-6.348686 47.922337-19.046057L798.914618 429.053141C812.431175 416.35577 819.189453 401.405639 819.189453 383.997952z"  horiz-adv-x="1024" />

    
    <glyph glyph-name="btn-triangle--blue-1" unicode="&#58912;" d="M853.338738-128a99.498501 99.498501 0 0 0-75.093208 33.791944L31.92144 702.29195A112.981145 112.981145 0 0 0 0.006827 782.163816C0.006827 812.883765 10.588142 839.678387 31.750774 862.377016A99.498501 99.498501 0 0 0 106.673316 895.998293h1493.330844c29.013285 0 53.930577-11.263981 75.093208-33.791943A112.981145 112.981145 0 0 0 1706.670649 782.163816c0-30.719949-10.581316-57.343904-31.743947-79.871866L928.431946-94.208056A99.498501 99.498501 0 0 0 853.338738-128z"  horiz-adv-x="1706" />

    


  </font>
</defs>
</svg>
